# xmcd
#
# Track frame offsets:
#	150
#	10278
#	20293
#	31186
#	41891
#	53014
#	68497
#	78197
#	90425
#	100410
#	112897
#	122935
#	131780
#	141518
#	154113
#	166772
#	176664
#	190679
#	202719
#	212689
#
# Disc length: 3024 seconds
#
# Revision: 0
# Processed by: cddbd v1.5.2PL0 Copyright (c) Steve Scherf et al.
# Submitted via: EasyCDDAExtractor 8.2.3.1
#
DISCID=010bce14
DTITLE=Kaye Adams - Wheels and Tears+Make Mine Country
DYEAR=1966
DGENRE=Country
TTITLE0=Little Pink Mack
TTITLE1=Six Days Awaiting
TTITLE2=The Reason We're Together
TTITLE3=Walk The Floor
TTITLE4=Big Mac -- Kay Adams
TTITLE5=That'll be The Day -- Kay Adams
TTITLE6=Second Fiddle -- Kay Adams
TTITLE7=Big  Bog Day Tomorrow -- Kay Adams
TTITLE8=Old Fashioned Cry -- Kay Adams
TTITLE9=The Worst Is Yet To Come -- Kay Adams
TTITLE10=Six Days A'Waiting
TTITLE11=Old Heart Get Ready
TTITLE12=Anymore
TTITLE13=Don't Talk Trouble To Me
TTITLE14=Trapped
TTITLE15=Roll Out The Red Carpet
TTITLE16=I Cried At Your Wedding
TTITLE17=Honky Tonk Heartache
TTITLE18=Be Nice To Somebody
TTITLE19=She Didn't Color Daddy
EXTD=
EXTT0=
EXTT1=
EXTT2=
EXTT3=
EXTT4=
EXTT5=
EXTT6=
EXTT7=
EXTT8=
EXTT9=
EXTT10=
EXTT11=
EXTT12=
EXTT13=
EXTT14=
EXTT15=
EXTT16=
EXTT17=
EXTT18=
EXTT19=
PLAYORDER=
